PathFileType	4	(X/Y/Z)	C:/Users/beibeiliu/ov580/test_trc\sequence.9_training_dense_right.trc
DataRate	CameraRate	NumFrames	NumMarkers	Units	OrigDataRate	OrigDataStartFrame	OrigNumFrames
120	120	10	19	mm	120	172	200
Frame#	Time	ThumbCMC			ThumbMCP			ThumbIP			ThumbTip			IndexMCP			IndexPIP			IndexTip			MiddleMCP			MiddlePIP			MiddleTip			RingMCP			RingPIP			RingTip			PinkyMCP			PinkyPIP			PinkyTip			BackHand1			BackHand2			BackHand3	
		X0	Y0	Z0	X1	Y1	Z1	X2	Y2	Z2	X3	Y3	Z3	X4	Y4	Z4	X5	Y5	Z5	X6	Y6	Z6	X7	Y7	Z7	X8	Y8	Z8	X9	Y9	Z9	X10	Y10	Z10	X11	Y11	Z11	X12	Y12	Z12	X13	Y13	Z13	X14	Y14	Z14	X15	Y15	Z15	X16	Y16	Z16	X17	Y17	Z17	X18	Y18	Z18	
171	1.425	83.7644	37.1924	145.075	57.387	41.2763	136.737	34.7175	36.0946	117.352	21.7516	19.525	106.454	65.8201	9.94755	77.4685	35.7767	4.26188	70.782	14.7273	5.40057	96.8338	71.0271	-12.8006	72.3437	47.7749	-20.6078	55.1412	18.148	-25.5454	46.2711	75.2853	-32.4363	85.2327	54.3931	-36.7484	62.3851	27.5749	-43.5097	49.2901	72.3732	-48.6935	98.2909	58.4355	-55.8042	86.2947	38.9745	-65.0404	65.4156	104.919	-21.5801	124.754	117.869	-18.5747	148.686	111.653	12.9298	131.884	
172	1.43333	99.2165	39.0414	139.96	75.4933	54.7187	130.251	52.069	60.3878	111.113	34.1426	42.3406	99.7311	74.1378	21.5539	74.3525	42.1563	28.3504	66.7965	20.928	34.3771	92.8787	71.2571	-0.427507	69.5473	45.6396	1.31405	50.8971	16.8173	1.13564	45.3242	66.4637	-21.9421	79.8769	47.5558	-25.5942	63.3867	21.6135	-18.3633	48.8383	59.0469	-40.8017	103.119	39.7033	-45.053	87.2004	21.7975	-47.2208	69.3945	98.9128	-22.2217	120.473	113.611	-20.5536	145.225	116.442	4.97085	127.918	
173	1.44167	113.031	34.2489	137.355	93.6656	54.0542	124.201	74.359	64.6985	102.837	51.2603	52.2341	90.0976	84.4135	20.8061	67.318	56.629	29.0906	60.123	36.2489	40.6619	85.1105	77.7636	-3.75569	66.447	56.6029	3.47263	46.6899	25.9665	12.8478	38.5746	70.4678	-20.472	78.5729	51.2483	-18.2679	58.1461	24.881	-10.0551	43.1999	57.0463	-35.2439	100.567	41.1065	-35.1566	85.2653	23.0244	-41.0322	66.8585	99.9719	-23.6283	121.326	115.037	-27.2317	145.928	123.711	2.88599	123.903	
174	1.45	127.232	24.6037	134.596	109.269	44.2305	114.263	95.5271	53.5359	96.7038	72.1097	47.0566	79.2125	100.223	5.41482	63.2952	75.5969	18.6308	52.9207	55.2471	35.9022	76.2494	91.5131	-18.6379	65.8901	73.0235	-12.8127	44.6866	47.124	2.36855	28.4648	81.2086	-32.7742	76.9773	60.2371	-30.9778	51.9395	38.2913	-22.6153	36.9134	64.267	-41.4667	96.4523	47.6611	-42.8773	82.6163	29.7365	-46.6467	62.9947	107.884	-36.1348	119.731	116.734	-37.7947	148.966	131.696	-12.0197	126.312	
175	1.45833	142.406	9.34756	129.311	128.751	28.5083	106.904	118.468	37.8262	83.5575	98.7209	28.9155	70.9958	122.696	-16.6777	62.1363	99.863	-2.28667	45.549	81.9958	21.5455	63.7561	114.469	-38.1356	63.2337	95.812	-34.7812	34.9553	72.4527	-25.8972	21.9902	98.5465	-52.4147	73.6986	83.7892	-52.0466	49.2323	66.6123	-44.5059	32.0961	77.8847	-57.8468	91.3094	64.8299	-57.8191	75.3386	48.6977	-66.6501	60.7622	118.865	-52.7509	124.164	127.451	-46.4368	150.963	145.648	-30.9546	125.754	
176	1.46667	159.451	0.061249	129.76	150.162	17.0984	103.792	143.157	25.3298	76.6115	124.577	13.551	62.151	148.692	-33.744	61.5601	132.639	-17.6251	41.267	113.216	4.54034	51.9182	140.349	-56.8613	63.3383	129.032	-55.4107	35.9085	107.846	-46.7408	15.0195	127.426	-65.9382	73.0763	117.383	-69.527	51.536	98.8563	-64.6676	24.4663	102.742	-69.0743	90.772	87.7871	-73.6937	75.9063	75.0829	-80.8767	56.8565	134.756	-60.4864	122.319	140.367	-53.9973	154.947	161.24	-37.7429	130.548	
177	1.475	176.438	4.31974	132.389	168.545	20.1871	103.923	163.415	19.334	75.5285	151.355	14.2267	54.097	182.056	-34.3141	64.8609	161.44	-24.1197	42.6545	142.048	-2.34946	47.917	170.563	-59.9803	72.3503	166.081	-61.3233	38.2948	148.128	-55.5539	11.1396	152.736	-71.6691	79.6417	148.535	-78.1787	53.1572	139.423	-73.9464	24.9398	128.295	-72.6133	92.7173	123.324	-78.9099	72.4728	113.448	-86.5086	46.9528	157.139	-58.2535	130.369	154.626	-52.2172	158.369	181.827	-35.369	138.245	
178	1.48333	186.769	11.2245	135.135	180.183	25.3693	101.675	179.468	31.1462	75.4594	171.125	17.1433	53.0685	208.302	-24.3173	73.6747	193.063	-19.4559	45.2906	166.387	1.71381	45.9178	201.764	-50.0044	75.996	201.72	-54.8708	46.3602	186.477	-50.856	13.1432	188.255	-63.5752	79.455	184.405	-73.4404	55.3515	179.023	-70.9977	27.1237	163.137	-67.723	91.5439	159.817	-77.7631	69.7881	153.769	-88.4268	47.1767	179.352	-50.4388	129.364	172.914	-46.7084	157.01	196.135	-26.3394	140.356	
179	1.49167	189.244	23.1946	132.079	178.686	32.0437	103.678	177.617	35.5394	79.3089	176.285	21.7434	55.5277	222.701	-8.87846	71.5253	209.612	-1.26901	46.0026	179.818	2.66856	44.4974	225.849	-31.2362	79.3441	227.216	-38.6124	49.9952	216.657	-38.187	18.7077	214.464	-50.5678	82.5325	220.198	-53.9689	54.454	214.657	-54.3109	25.0473	195.009	-60.4379	86.7687	195.386	-68.5263	68.2548	194.885	-79.7135	42.2212	199.103	-40.7907	130.729	188.591	-36.8779	158.108	209.122	-9.43115	142.914	
180	1.5	176.103	30.054	130.754	161.911	37.8318	102.938	163.158	38.5703	73.5114	165.34	28.9948	49.1229	220.199	17.2081	74.53	206.26	13.7797	43.5405	175.623	12.4416	39.4123	234.163	-2.54832	75.1293	238.615	-5.16675	46.4246	229.718	-11.9931	15.6841	229.981	-19.7584	81.095	238.603	-28.1642	50.5461	235.37	-28.8892	25.7526	215.344	-41.9137	88.8304	222.206	-50.6628	65.4412	225.404	-59.9868	41.0321	215.429	-23.5052	126.026	201.653	-22.3434	158.005	208.491	10.2955	141.677	
